# xmcd
#
# Track frame offsets:
#	150
#	12637
#	26515
#	36207
#	49460
#	60040
#	73915
#	83475
#	95687
#	110342
#	136617
#	149842
#	164810
#	173875
#	184947
#	202785
#	212877
#	226187
#	239055
#	251730
#
# Disc length: 3574
#
# Revision: 1
# Processed by: cddbd v1.5.1PL0 Copyright (c) Steve Scherf et al.
# Submitted via: Grip 2.96
# Normalized: r0:DSETVAR1
#
DISCID=250df414
DTITLE=Various Artist - Country Greats Disc 1 - The Platinum Collection
DYEAR=1900
DGENRE=
TTITLE0=Sandy Posey - Single Girl
TTITLE1=Freddy Fender - Wasted Days, Wasted Nights
TTITLE2=Ned Miller - From a Jack to a King
TTITLE3=Lynn Anderson - Rose Garden
TTITLE4=Ferlin Huskey - Wings Of A Dove
TTITLE5=B J Thomas - Raindrops Keep Falling on my Head
TTITLE6=Charley Pride - Kiss an Angel Good Norning
TTITLE7=Johnny Paycheck - Take This Job and Shove It
TTITLE8=Loretta Lynn - Coalminer's Daughter
TTITLE9=Brenda Lee - End of The World
TTITLE10=Kenny Rogers - Ruby Don't Take Your Love to Town
TTITLE11=Billie jo Spears - Crystal Chandeliers
TTITLE12=Guy Mitchell - Singing The Blues
TTITLE13=Roger Miller - King of The Road
TTITLE14=Brook Benton - Rainy Night in Georgia
TTITLE15=Faron Young - Hello Walls
TTITLE16=Hank Locklin - Please Help Me I'm Falling
TTITLE17=Lee Hazelwood - These Boots Are Made For Walking
TTITLE18=Jerry Wallace - In The Misty Moonlight
TTITLE19=Merle Haggard - I'll Just Stay Here and Drink
EXTD=
EXTT0=
EXTT1=
EXTT2=
EXTT3=
EXTT4=
EXTT5=
EXTT6=
EXTT7=
EXTT8=
EXTT9=
EXTT10=
EXTT11=
EXTT12=
EXTT13=
EXTT14=
EXTT15=
EXTT16=
EXTT17=
EXTT18=
EXTT19=
PLAYORDER=
